<svg width="18" height="18" viewBox="0 0 18 18" fill="none" xmlns="http://www.w3.org/2000/svg">
<path d="M13.4 4.5V4.6H13.5H17.9V15.75C17.9 16.3202 17.6735 16.8671 17.2703 17.2703C16.8671 17.6735 16.3202 17.9 15.75 17.9H2.25C1.67978 17.9 1.13292 17.6735 0.72972 17.2703C0.326517 16.8671 0.1 16.3202 0.1 15.75V4.6H4.5H4.6V4.5C4.6 3.33305 5.06357 2.21389 5.88873 1.38873C6.71389 0.56357 7.83305 0.1 9 0.1C10.167 0.1 11.2861 0.56357 12.1113 1.38873C12.9364 2.21389 13.4 3.33305 13.4 4.5ZM12 4.6H12.1V4.5C12.1 3.67783 11.7734 2.88933 11.192 2.30797C10.6107 1.72661 9.82217 1.4 9 1.4C8.17783 1.4 7.38933 1.72661 6.80797 2.30797C6.22661 2.88933 5.9 3.67783 5.9 4.5V4.6H6H12ZM1.5 5.9H1.4V6V15.75C1.4 15.9754 1.48955 16.1916 1.64896 16.351C1.80837 16.5104 2.02457 16.6 2.25 16.6H15.75C15.9754 16.6 16.1916 16.5104 16.351 16.351C16.5104 16.1916 16.6 15.9754 16.6 15.75V6V5.9H16.5H13.5H13.4V6V7.4H12.1V6V5.9H12H6H5.9V6V7.4H4.6V6V5.9H4.5H1.5Z" fill="#BEAFC3" stroke="#160524" stroke-width="0.2"/>
</svg>
