<svg width="25" height="18" viewBox="0 0 25 18" fill="none" xmlns="http://www.w3.org/2000/svg">
<path fill-rule="evenodd" clip-rule="evenodd" d="M11.9204 0.178089C12.2405 -0.059363 12.7595 -0.0593633 13.0796 0.178089L18.9622 4.54182C19.3623 4.83864 19.3623 5.31987 18.9622 5.61669C18.5621 5.9135 17.9133 5.9135 17.5132 5.61669L13.5246 2.65792V11.7676C13.5246 12.1874 13.0659 12.5277 12.5 12.5277C11.9341 12.5277 11.4754 12.1874 11.4754 11.7676V2.65792L7.48679 5.61669C7.08666 5.9135 6.43793 5.9135 6.0378 5.61669C5.63767 5.31987 5.63767 4.83864 6.0378 4.54182L11.9204 0.178089ZM1.02459 9.79153C1.59046 9.79153 2.04918 10.1318 2.04918 10.5516V15.4159C2.04918 16.0035 2.69139 16.4799 3.48361 16.4799H21.5164C22.3086 16.4799 22.9508 16.0035 22.9508 15.4159V10.5516C22.9508 10.1318 23.4095 9.79153 23.9754 9.79153C24.5413 9.79153 25 10.1318 25 10.5516V15.4159C25 16.843 23.4403 18 21.5164 18H3.48361C1.55966 18 0 16.843 0 15.4159V10.5516C0 10.1318 0.458725 9.79153 1.02459 9.79153Z" fill="#687684"/>
</svg>
